<svg width="372" height="372" viewBox="0 0 372 372" fill="none" xmlns="http://www.w3.org/2000/svg">
<path fill-rule="evenodd" clip-rule="evenodd" d="M283.519 344.416C336.613 311.663 372 252.964 372 186C372 83.275 288.725 0 186 0C83.275 0 0 83.275 0 186C0 250.017 32.3411 306.48 81.576 339.943L108.141 224.539C116.865 186.648 130.146 156.245 147.984 133.328C179.234 93.224 214.195 73.1719 252.867 73.1719C285.419 73.1719 308.271 85.151 321.422 109.109C328.583 122.13 332.164 136.128 332.164 151.102C332.164 159.044 331.188 167.247 329.234 175.711C324.026 198.107 311.331 219.005 291.148 238.406C278.128 250.906 263.349 260.151 246.812 266.141L283.519 344.416ZM244.43 362.637L203.062 274.344H158.922L159.508 272.391L181.383 241.141H204.43C228.909 241.141 247.789 235.151 261.07 223.172C276.305 209.37 286.005 193.549 290.172 175.711C291.865 168.419 292.711 161.648 292.711 155.398C292.711 143.289 289.586 133.003 283.336 124.539C274.352 112.43 261.656 106.375 245.25 106.375C221.292 106.375 198.896 120.438 178.062 148.562C165.172 166.01 154.885 191.336 147.203 224.539L116.41 358.545C137.906 367.223 161.395 372 186 372C206.411 372 226.055 368.712 244.43 362.637Z" fill="#E54B4B"/>
</svg>
